<svg xmlns="http://www.w3.org/2000/svg" xmlns:xlink="http://www.w3.org/1999/xlink" width="377" zoomAndPan="magnify" viewBox="0 0 283.5 283.500005" height="377" preserveAspectRatio="xMidYMid meet" version="1.0"><defs><clipPath id="6144de595b"><path d="M 0 0 L 283 0 L 283 283 L 0 283 Z M 0 0 " clip-rule="nonzero"/></clipPath></defs><path fill="#ffffff" d="M 282.316406 141.75 C 282.316406 144.050781 282.257812 146.347656 282.148438 148.648438 C 282.035156 150.945312 281.863281 153.238281 281.640625 155.527344 C 281.414062 157.816406 281.132812 160.101562 280.792969 162.375 C 280.457031 164.652344 280.0625 166.917969 279.613281 169.171875 C 279.167969 171.429688 278.664062 173.671875 278.101562 175.90625 C 277.542969 178.136719 276.929688 180.351562 276.261719 182.554688 C 275.59375 184.753906 274.875 186.9375 274.097656 189.105469 C 273.324219 191.269531 272.496094 193.417969 271.617188 195.542969 C 270.734375 197.667969 269.804688 199.769531 268.820312 201.851562 C 267.835938 203.929688 266.800781 205.984375 265.71875 208.011719 C 264.632812 210.042969 263.5 212.042969 262.316406 214.015625 C 261.132812 215.988281 259.90625 217.929688 258.625 219.84375 C 257.347656 221.757812 256.023438 223.636719 254.652344 225.484375 C 253.285156 227.332031 251.867188 229.144531 250.410156 230.925781 C 248.949219 232.703125 247.449219 234.445312 245.902344 236.148438 C 244.359375 237.851562 242.773438 239.519531 241.144531 241.144531 C 239.519531 242.773438 237.851562 244.359375 236.148438 245.902344 C 234.445312 247.449219 232.703125 248.949219 230.925781 250.410156 C 229.144531 251.867188 227.332031 253.285156 225.484375 254.652344 C 223.636719 256.023438 221.757812 257.347656 219.84375 258.625 C 217.929688 259.90625 215.988281 261.136719 214.015625 262.316406 C 212.042969 263.5 210.042969 264.632812 208.011719 265.71875 C 205.984375 266.800781 203.929688 267.835938 201.851562 268.820312 C 199.769531 269.804688 197.667969 270.734375 195.542969 271.617188 C 193.417969 272.496094 191.269531 273.324219 189.105469 274.097656 C 186.9375 274.875 184.753906 275.59375 182.554688 276.261719 C 180.351562 276.929688 178.136719 277.542969 175.90625 278.101562 C 173.671875 278.664062 171.429688 279.167969 169.171875 279.613281 C 166.917969 280.0625 164.652344 280.457031 162.375 280.792969 C 160.101562 281.132812 157.816406 281.414062 155.527344 281.640625 C 153.238281 281.863281 150.945312 282.035156 148.648438 282.148438 C 146.347656 282.257812 144.050781 282.316406 141.75 282.316406 C 139.449219 282.316406 137.152344 282.257812 134.851562 282.148438 C 132.554688 282.035156 130.261719 281.863281 127.972656 281.640625 C 125.683594 281.414062 123.398438 281.132812 121.125 280.792969 C 118.847656 280.457031 116.582031 280.0625 114.328125 279.613281 C 112.070312 279.167969 109.828125 278.664062 107.59375 278.101562 C 105.363281 277.542969 103.148438 276.929688 100.945312 276.261719 C 98.746094 275.59375 96.5625 274.875 94.394531 274.097656 C 92.230469 273.324219 90.082031 272.496094 87.957031 271.617188 C 85.832031 270.734375 83.730469 269.804688 81.648438 268.820312 C 79.570312 267.835938 77.515625 266.800781 75.488281 265.71875 C 73.457031 264.632812 71.457031 263.5 69.484375 262.316406 C 67.511719 261.136719 65.570312 259.90625 63.65625 258.625 C 61.742188 257.347656 59.863281 256.023438 58.015625 254.652344 C 56.167969 253.285156 54.355469 251.867188 52.574219 250.410156 C 50.796875 248.949219 49.054688 247.449219 47.351562 245.902344 C 45.648438 244.359375 43.980469 242.773438 42.355469 241.144531 C 40.726562 239.519531 39.140625 237.851562 37.597656 236.148438 C 36.050781 234.445312 34.550781 232.703125 33.089844 230.925781 C 31.632812 229.144531 30.214844 227.332031 28.847656 225.484375 C 27.476562 223.636719 26.152344 221.757812 24.875 219.84375 C 23.59375 217.929688 22.363281 215.988281 21.183594 214.015625 C 20 212.042969 18.867188 210.042969 17.78125 208.011719 C 16.699219 205.984375 15.664062 203.929688 14.679688 201.851562 C 13.695312 199.769531 12.765625 197.667969 11.882812 195.542969 C 11.003906 193.417969 10.175781 191.269531 9.402344 189.105469 C 8.625 186.9375 7.90625 184.753906 7.238281 182.554688 C 6.570312 180.351562 5.957031 178.136719 5.398438 175.90625 C 4.835938 173.671875 4.332031 171.429688 3.886719 169.171875 C 3.4375 166.917969 3.042969 164.652344 2.707031 162.375 C 2.367188 160.101562 2.085938 157.816406 1.859375 155.527344 C 1.636719 153.238281 1.464844 150.945312 1.351562 148.648438 C 1.242188 146.347656 1.183594 144.050781 1.183594 141.75 C 1.183594 139.449219 1.242188 137.152344 1.351562 134.851562 C 1.464844 132.554688 1.636719 130.261719 1.859375 127.972656 C 2.085938 125.683594 2.367188 123.398438 2.707031 121.125 C 3.042969 118.847656 3.4375 116.582031 3.886719 114.328125 C 4.332031 112.070312 4.835938 109.828125 5.398438 107.59375 C 5.957031 105.363281 6.570312 103.148438 7.238281 100.945312 C 7.90625 98.746094 8.625 96.5625 9.402344 94.394531 C 10.175781 92.230469 11.003906 90.082031 11.882812 87.957031 C 12.765625 85.832031 13.695312 83.730469 14.679688 81.648438 C 15.664062 79.570312 16.699219 77.515625 17.78125 75.488281 C 18.867188 73.457031 20 71.457031 21.183594 69.484375 C 22.363281 67.511719 23.59375 65.570312 24.875 63.65625 C 26.152344 61.742188 27.476562 59.863281 28.847656 58.015625 C 30.214844 56.167969 31.632812 54.355469 33.089844 52.574219 C 34.550781 50.796875 36.050781 49.054688 37.597656 47.351562 C 39.140625 45.648438 40.726562 43.980469 42.355469 42.355469 C 43.980469 40.726562 45.648438 39.140625 47.351562 37.597656 C 49.054688 36.050781 50.796875 34.550781 52.574219 33.089844 C 54.355469 31.632812 56.167969 30.214844 58.015625 28.847656 C 59.863281 27.476562 61.742188 26.152344 63.65625 24.875 C 65.570312 23.59375 67.511719 22.363281 69.484375 21.183594 C 71.457031 20 73.457031 18.867188 75.488281 17.78125 C 77.515625 16.699219 79.570312 15.664062 81.648438 14.679688 C 83.730469 13.695312 85.832031 12.765625 87.957031 11.882812 C 90.082031 11.003906 92.230469 10.175781 94.394531 9.402344 C 96.5625 8.625 98.746094 7.90625 100.945312 7.238281 C 103.148438 6.570312 105.363281 5.957031 107.59375 5.398438 C 109.828125 4.835938 112.070312 4.332031 114.328125 3.886719 C 116.582031 3.4375 118.847656 3.042969 121.125 2.707031 C 123.398438 2.367188 125.683594 2.085938 127.972656 1.859375 C 130.261719 1.636719 132.554688 1.464844 134.851562 1.351562 C 137.152344 1.242188 139.449219 1.183594 141.75 1.183594 C 144.050781 1.183594 146.347656 1.242188 148.648438 1.351562 C 150.945312 1.464844 153.238281 1.636719 155.527344 1.859375 C 157.816406 2.085938 160.101562 2.367188 162.375 2.707031 C 164.652344 3.042969 166.917969 3.4375 169.171875 3.886719 C 171.429688 4.332031 173.671875 4.835938 175.90625 5.398438 C 178.136719 5.957031 180.351562 6.570312 182.554688 7.238281 C 184.753906 7.90625 186.9375 8.625 189.105469 9.402344 C 191.269531 10.175781 193.417969 11.003906 195.542969 11.882812 C 197.667969 12.765625 199.769531 13.695312 201.851562 14.679688 C 203.929688 15.664062 205.984375 16.699219 208.011719 17.78125 C 210.042969 18.867188 212.042969 20 214.015625 21.183594 C 215.988281 22.363281 217.929688 23.59375 219.84375 24.875 C 221.757812 26.152344 223.636719 27.476562 225.484375 28.847656 C 227.332031 30.214844 229.144531 31.632812 230.925781 33.089844 C 232.703125 34.550781 234.445312 36.050781 236.148438 37.597656 C 237.851562 39.140625 239.519531 40.726562 241.144531 42.355469 C 242.773438 43.980469 244.359375 45.648438 245.902344 47.351562 C 247.449219 49.054688 248.949219 50.796875 250.410156 52.574219 C 251.867188 54.355469 253.285156 56.167969 254.652344 58.015625 C 256.023438 59.863281 257.347656 61.742188 258.625 63.65625 C 259.90625 65.570312 261.136719 67.511719 262.316406 69.484375 C 263.5 71.457031 264.632812 73.457031 265.71875 75.488281 C 266.800781 77.515625 267.835938 79.570312 268.820312 81.648438 C 269.804688 83.730469 270.734375 85.832031 271.617188 87.957031 C 272.496094 90.082031 273.324219 92.230469 274.097656 94.394531 C 274.875 96.5625 275.59375 98.746094 276.261719 100.945312 C 276.929688 103.148438 277.542969 105.363281 278.101562 107.59375 C 278.664062 109.828125 279.167969 112.070312 279.613281 114.328125 C 280.0625 116.582031 280.457031 118.847656 280.792969 121.125 C 281.132812 123.398438 281.414062 125.683594 281.640625 127.972656 C 281.863281 130.261719 282.035156 132.554688 282.148438 134.851562 C 282.257812 137.152344 282.316406 139.449219 282.316406 141.75 Z M 282.316406 141.75 " fill-opacity="1" fill-rule="nonzero"/><g clip-path="url(#6144de595b)"><path fill="#ff004f" d="M 141.75 283.492188 C 103.886719 283.492188 68.289062 268.746094 41.523438 241.976562 C 14.746094 215.210938 0 179.613281 0 141.75 C 0 103.886719 14.746094 68.289062 41.515625 41.515625 C 68.285156 14.742188 103.886719 0 141.75 0 C 179.613281 0 215.207031 14.746094 241.976562 41.515625 C 268.746094 68.285156 283.492188 103.886719 283.492188 141.742188 C 283.492188 179.601562 268.746094 215.203125 241.976562 241.972656 C 215.203125 268.742188 179.605469 283.488281 141.75 283.488281 Z M 141.75 2.367188 C 64.894531 2.367188 2.367188 64.894531 2.367188 141.75 C 2.367188 218.605469 64.894531 281.132812 141.75 281.132812 C 218.605469 281.132812 281.132812 218.605469 281.132812 141.75 C 281.132812 64.894531 218.601562 2.367188 141.75 2.367188 Z M 141.75 2.367188 " fill-opacity="1" fill-rule="nonzero"/></g><path fill="#ff004f" d="M 261.453125 141.75 C 261.453125 143.710938 261.40625 145.667969 261.308594 147.625 C 261.214844 149.582031 261.070312 151.535156 260.878906 153.484375 C 260.6875 155.433594 260.445312 157.375 260.160156 159.3125 C 259.871094 161.253906 259.535156 163.183594 259.15625 165.101562 C 258.773438 167.023438 258.34375 168.933594 257.867188 170.835938 C 257.390625 172.734375 256.867188 174.625 256.300781 176.5 C 255.730469 178.375 255.117188 180.234375 254.457031 182.078125 C 253.796875 183.921875 253.09375 185.75 252.34375 187.558594 C 251.59375 189.367188 250.800781 191.160156 249.960938 192.929688 C 249.125 194.703125 248.242188 196.449219 247.320312 198.179688 C 246.398438 199.90625 245.429688 201.609375 244.425781 203.289062 C 243.417969 204.972656 242.367188 206.625 241.28125 208.253906 C 240.191406 209.882812 239.066406 211.484375 237.898438 213.058594 C 236.730469 214.632812 235.527344 216.175781 234.28125 217.691406 C 233.039062 219.203125 231.761719 220.6875 230.445312 222.140625 C 229.128906 223.589844 227.777344 225.007812 226.394531 226.394531 C 225.007812 227.777344 223.589844 229.128906 222.136719 230.445312 C 220.6875 231.761719 219.203125 233.039062 217.691406 234.28125 C 216.175781 235.527344 214.632812 236.730469 213.058594 237.898438 C 211.484375 239.066406 209.882812 240.191406 208.253906 241.28125 C 206.625 242.367188 204.972656 243.417969 203.289062 244.425781 C 201.609375 245.429688 199.90625 246.398438 198.179688 247.320312 C 196.449219 248.242188 194.703125 249.125 192.929688 249.960938 C 191.160156 250.800781 189.367188 251.59375 187.558594 252.34375 C 185.75 253.09375 183.921875 253.796875 182.078125 254.457031 C 180.234375 255.117188 178.375 255.730469 176.5 256.300781 C 174.625 256.867188 172.734375 257.390625 170.835938 257.867188 C 168.933594 258.34375 167.023438 258.773438 165.101562 259.15625 C 163.183594 259.535156 161.253906 259.871094 159.3125 260.160156 C 157.375 260.445312 155.433594 260.6875 153.484375 260.878906 C 151.535156 261.070312 149.582031 261.214844 147.625 261.308594 C 145.667969 261.40625 143.710938 261.453125 141.75 261.453125 C 139.789062 261.453125 137.832031 261.40625 135.875 261.308594 C 133.917969 261.214844 131.964844 261.070312 130.015625 260.878906 C 128.066406 260.6875 126.125 260.445312 124.1875 260.160156 C 122.246094 259.871094 120.316406 259.535156 118.398438 259.15625 C 116.476562 258.773438 114.566406 258.34375 112.664062 257.867188 C 110.765625 257.390625 108.875 256.867188 107 256.300781 C 105.125 255.730469 103.265625 255.117188 101.421875 254.457031 C 99.578125 253.796875 97.75 253.09375 95.941406 252.34375 C 94.132812 251.59375 92.339844 250.800781 90.570312 249.960938 C 88.796875 249.125 87.050781 248.242188 85.320312 247.320312 C 83.59375 246.398438 81.890625 245.429688 80.210938 244.425781 C 78.527344 243.417969 76.875 242.367188 75.246094 241.28125 C 73.617188 240.191406 72.015625 239.066406 70.441406 237.898438 C 68.867188 236.730469 67.324219 235.527344 65.808594 234.28125 C 64.296875 233.039062 62.8125 231.761719 61.359375 230.445312 C 59.910156 229.128906 58.492188 227.777344 57.105469 226.394531 C 55.722656 225.007812 54.371094 223.589844 53.054688 222.140625 C 51.738281 220.6875 50.460938 219.203125 49.21875 217.691406 C 47.972656 216.175781 46.769531 214.632812 45.601562 213.058594 C 44.433594 211.484375 43.308594 209.882812 42.21875 208.253906 C 41.128906 206.625 40.082031 204.972656 39.074219 203.289062 C 38.070312 201.609375 37.101562 199.90625 36.179688 198.179688 C 35.257812 196.449219 34.375 194.703125 33.539062 192.929688 C 32.699219 191.160156 31.90625 189.367188 31.15625 187.558594 C 30.40625 185.75 29.703125 183.921875 29.042969 182.078125 C 28.382812 180.234375 27.769531 178.375 27.199219 176.5 C 26.632812 174.625 26.109375 172.734375 25.632812 170.835938 C 25.15625 168.933594 24.726562 167.023438 24.34375 165.101562 C 23.964844 163.183594 23.628906 161.253906 23.339844 159.3125 C 23.054688 157.375 22.8125 155.433594 22.621094 153.484375 C 22.429688 151.535156 22.285156 149.582031 22.191406 147.625 C 22.09375 145.667969 22.046875 143.710938 22.046875 141.75 C 22.046875 139.789062 22.09375 137.832031 22.191406 135.875 C 22.285156 133.917969 22.429688 131.964844 22.621094 130.015625 C 22.8125 128.066406 23.054688 126.125 23.339844 124.1875 C 23.628906 122.246094 23.964844 120.316406 24.34375 118.398438 C 24.726562 116.476562 25.15625 114.566406 25.632812 112.664062 C 26.109375 110.765625 26.632812 108.875 27.199219 107 C 27.769531 105.125 28.382812 103.265625 29.042969 101.421875 C 29.703125 99.578125 30.40625 97.75 31.15625 95.941406 C 31.90625 94.132812 32.699219 92.339844 33.539062 90.570312 C 34.375 88.796875 35.257812 87.050781 36.179688 85.320312 C 37.101562 83.59375 38.070312 81.890625 39.074219 80.210938 C 40.082031 78.527344 41.128906 76.875 42.21875 75.246094 C 43.308594 73.617188 44.433594 72.015625 45.601562 70.441406 C 46.769531 68.867188 47.972656 67.324219 49.21875 65.808594 C 50.460938 64.296875 51.738281 62.8125 53.054688 61.359375 C 54.371094 59.910156 55.722656 58.492188 57.105469 57.105469 C 58.492188 55.722656 59.910156 54.371094 61.359375 53.054688 C 62.8125 51.738281 64.296875 50.460938 65.808594 49.21875 C 67.324219 47.972656 68.867188 46.769531 70.441406 45.601562 C 72.015625 44.433594 73.617188 43.308594 75.246094 42.21875 C 76.875 41.132812 78.527344 40.082031 80.210938 39.074219 C 81.890625 38.070312 83.59375 37.101562 85.320312 36.179688 C 87.050781 35.257812 88.796875 34.375 90.570312 33.539062 C 92.339844 32.699219 94.132812 31.90625 95.941406 31.15625 C 97.75 30.40625 99.578125 29.703125 101.421875 29.042969 C 103.265625 28.382812 105.125 27.769531 107 27.199219 C 108.875 26.632812 110.765625 26.109375 112.664062 25.632812 C 114.566406 25.15625 116.476562 24.726562 118.398438 24.34375 C 120.316406 23.964844 122.246094 23.628906 124.1875 23.339844 C 126.125 23.054688 128.066406 22.8125 130.015625 22.621094 C 131.964844 22.429688 133.917969 22.285156 135.875 22.191406 C 137.832031 22.09375 139.789062 22.046875 141.75 22.046875 C 143.710938 22.046875 145.667969 22.09375 147.625 22.191406 C 149.582031 22.285156 151.535156 22.429688 153.484375 22.621094 C 155.433594 22.8125 157.375 23.054688 159.3125 23.339844 C 161.253906 23.628906 163.183594 23.964844 165.101562 24.34375 C 167.023438 24.726562 168.933594 25.15625 170.835938 25.632812 C 172.734375 26.109375 174.625 26.632812 176.5 27.199219 C 178.375 27.769531 180.234375 28.382812 182.078125 29.042969 C 183.921875 29.703125 185.75 30.40625 187.558594 31.15625 C 189.367188 31.90625 191.160156 32.699219 192.929688 33.539062 C 194.703125 34.375 196.449219 35.257812 198.179688 36.179688 C 199.90625 37.101562 201.609375 38.070312 203.289062 39.074219 C 204.972656 40.082031 206.625 41.132812 208.253906 42.21875 C 209.882812 43.308594 211.484375 44.433594 213.058594 45.601562 C 214.632812 46.769531 216.175781 47.972656 217.691406 49.21875 C 219.203125 50.460938 220.6875 51.738281 222.136719 53.054688 C 223.589844 54.371094 225.007812 55.722656 226.394531 57.105469 C 227.777344 58.492188 229.128906 59.910156 230.445312 61.359375 C 231.761719 62.8125 233.039062 64.296875 234.28125 65.808594 C 235.527344 67.324219 236.730469 68.867188 237.898438 70.441406 C 239.066406 72.015625 240.191406 73.617188 241.28125 75.246094 C 242.367188 76.875 243.417969 78.527344 244.425781 80.210938 C 245.429688 81.890625 246.398438 83.59375 247.320312 85.320312 C 248.242188 87.050781 249.125 88.796875 249.960938 90.570312 C 250.800781 92.339844 251.59375 94.132812 252.34375 95.941406 C 253.09375 97.75 253.796875 99.578125 254.457031 101.421875 C 255.117188 103.265625 255.730469 105.125 256.300781 107 C 256.867188 108.875 257.390625 110.765625 257.867188 112.664062 C 258.34375 114.566406 258.773438 116.476562 259.15625 118.398438 C 259.535156 120.316406 259.871094 122.246094 260.160156 124.1875 C 260.445312 126.125 260.6875 128.066406 260.878906 130.015625 C 261.070312 131.964844 261.214844 133.917969 261.308594 135.875 C 261.40625 137.832031 261.453125 139.789062 261.453125 141.75 Z M 261.453125 141.75 " fill-opacity="1" fill-rule="nonzero"/><path fill="#ffffff" d="M 128.367188 220.363281 L 97.671875 189.671875 L 146.054688 141.289062 L 98.59375 93.828125 L 129.292969 63.128906 L 207.449219 141.289062 Z M 128.367188 220.363281 " fill-opacity="1" fill-rule="nonzero"/></svg>