<svg xmlns="http://www.w3.org/2000/svg" xmlns:xlink="http://www.w3.org/1999/xlink" width="377" zoomAndPan="magnify" viewBox="0 0 283.5 283.500005" height="377" preserveAspectRatio="xMidYMid meet" version="1.0"><defs><clipPath id="8c9cf4235c"><path d="M 0 0 L 283 0 L 283 283 L 0 283 Z M 0 0 " clip-rule="nonzero"/></clipPath></defs><g clip-path="url(#8c9cf4235c)"><path fill="#ffffff" d="M 200.136719 120.480469 C 189.976562 120.480469 181.730469 112.242188 181.730469 102.074219 C 181.730469 91.917969 189.976562 83.671875 200.136719 83.671875 C 210.304688 83.671875 218.539062 91.917969 218.539062 102.074219 C 218.539062 112.242188 210.304688 120.480469 200.136719 120.480469 Z M 209.339844 195.847656 L 74.15625 195.847656 C 70.429688 195.847656 67.40625 192.828125 67.40625 189.101562 C 67.40625 185.371094 70.429688 182.347656 74.15625 182.347656 L 209.339844 182.347656 C 213.0625 182.347656 216.085938 185.371094 216.085938 189.101562 C 216.085938 192.828125 213.0625 195.847656 209.339844 195.847656 Z M 83.355469 83.671875 C 93.527344 83.671875 101.761719 91.917969 101.761719 102.074219 C 101.761719 112.242188 93.527344 120.480469 83.355469 120.480469 C 73.199219 120.480469 64.953125 112.242188 64.953125 102.074219 C 64.953125 91.917969 73.199219 83.671875 83.355469 83.671875 Z M 141.75 0.00390625 C 63.589844 0.00390625 0.00390625 63.589844 0.00390625 141.75 C 0.00390625 219.90625 63.589844 283.496094 141.75 283.496094 C 219.910156 283.496094 283.496094 219.90625 283.496094 141.75 C 283.496094 63.589844 219.910156 0.00390625 141.75 0.00390625 " fill-opacity="1" fill-rule="nonzero"/></g></svg>