<svg xmlns="http://www.w3.org/2000/svg" xmlns:xlink="http://www.w3.org/1999/xlink" width="377" zoomAndPan="magnify" viewBox="0 0 283.5 283.500005" height="377" preserveAspectRatio="xMidYMid meet" version="1.0"><defs><clipPath id="ba2a400fab"><path d="M 0 0 L 283 0 L 283 283 L 0 283 Z M 0 0 " clip-rule="nonzero"/></clipPath></defs><path fill="#ffffff" d="M 1.136719 141.75 C 1.136719 144.050781 1.195312 146.347656 1.304688 148.648438 C 1.417969 150.945312 1.589844 153.238281 1.8125 155.527344 C 2.039062 157.816406 2.320312 160.101562 2.660156 162.375 C 2.996094 164.652344 3.390625 166.917969 3.839844 169.171875 C 4.285156 171.429688 4.789062 173.671875 5.351562 175.90625 C 5.910156 178.136719 6.523438 180.351562 7.191406 182.554688 C 7.859375 184.753906 8.578125 186.9375 9.355469 189.105469 C 10.128906 191.269531 10.957031 193.417969 11.835938 195.542969 C 12.71875 197.667969 13.648438 199.769531 14.632812 201.851562 C 15.617188 203.929688 16.652344 205.984375 17.734375 208.011719 C 18.820312 210.042969 19.953125 212.042969 21.136719 214.015625 C 22.316406 215.988281 23.546875 217.929688 24.828125 219.84375 C 26.105469 221.757812 27.429688 223.636719 28.800781 225.484375 C 30.167969 227.332031 31.585938 229.144531 33.042969 230.925781 C 34.503906 232.703125 36.003906 234.445312 37.550781 236.148438 C 39.09375 237.851562 40.679688 239.519531 42.308594 241.144531 C 43.933594 242.773438 45.601562 244.359375 47.304688 245.902344 C 49.007812 247.449219 50.75 248.949219 52.527344 250.410156 C 54.308594 251.867188 56.121094 253.285156 57.96875 254.652344 C 59.816406 256.023438 61.695312 257.347656 63.609375 258.625 C 65.523438 259.90625 67.464844 261.136719 69.4375 262.316406 C 71.410156 263.5 73.410156 264.632812 75.441406 265.71875 C 77.46875 266.800781 79.523438 267.835938 81.601562 268.820312 C 83.683594 269.804688 85.785156 270.734375 87.910156 271.617188 C 90.035156 272.496094 92.183594 273.324219 94.347656 274.097656 C 96.515625 274.875 98.699219 275.59375 100.898438 276.261719 C 103.101562 276.929688 105.316406 277.542969 107.546875 278.101562 C 109.78125 278.664062 112.023438 279.167969 114.28125 279.613281 C 116.535156 280.0625 118.800781 280.457031 121.078125 280.792969 C 123.351562 281.132812 125.636719 281.414062 127.925781 281.640625 C 130.214844 281.863281 132.507812 282.035156 134.804688 282.148438 C 137.105469 282.257812 139.402344 282.316406 141.703125 282.316406 C 144.003906 282.316406 146.300781 282.257812 148.601562 282.148438 C 150.898438 282.035156 153.191406 281.863281 155.480469 281.640625 C 157.769531 281.414062 160.054688 281.132812 162.328125 280.792969 C 164.605469 280.457031 166.871094 280.0625 169.125 279.613281 C 171.382812 279.167969 173.625 278.664062 175.859375 278.101562 C 178.089844 277.542969 180.304688 276.929688 182.507812 276.261719 C 184.707031 275.59375 186.890625 274.875 189.058594 274.097656 C 191.222656 273.324219 193.371094 272.496094 195.496094 271.617188 C 197.621094 270.734375 199.722656 269.804688 201.804688 268.820312 C 203.882812 267.835938 205.9375 266.800781 207.964844 265.71875 C 209.996094 264.632812 211.996094 263.5 213.96875 262.316406 C 215.941406 261.136719 217.882812 259.90625 219.796875 258.625 C 221.710938 257.347656 223.589844 256.023438 225.4375 254.652344 C 227.285156 253.285156 229.097656 251.867188 230.878906 250.410156 C 232.65625 248.949219 234.398438 247.449219 236.101562 245.902344 C 237.804688 244.359375 239.472656 242.773438 241.097656 241.144531 C 242.726562 239.519531 244.3125 237.851562 245.855469 236.148438 C 247.402344 234.445312 248.902344 232.703125 250.363281 230.925781 C 251.820312 229.144531 253.238281 227.332031 254.605469 225.484375 C 255.976562 223.636719 257.300781 221.757812 258.578125 219.84375 C 259.859375 217.929688 261.089844 215.988281 262.269531 214.015625 C 263.453125 212.042969 264.585938 210.042969 265.671875 208.011719 C 266.753906 205.984375 267.789062 203.929688 268.773438 201.851562 C 269.757812 199.769531 270.6875 197.667969 271.570312 195.542969 C 272.449219 193.417969 273.277344 191.269531 274.050781 189.105469 C 274.828125 186.9375 275.546875 184.753906 276.214844 182.554688 C 276.882812 180.351562 277.496094 178.136719 278.054688 175.90625 C 278.617188 173.671875 279.121094 171.429688 279.566406 169.171875 C 280.015625 166.917969 280.410156 164.652344 280.746094 162.375 C 281.085938 160.101562 281.367188 157.816406 281.59375 155.527344 C 281.816406 153.238281 281.988281 150.945312 282.101562 148.648438 C 282.210938 146.347656 282.269531 144.050781 282.269531 141.75 C 282.269531 139.449219 282.210938 137.152344 282.101562 134.851562 C 281.988281 132.554688 281.816406 130.261719 281.59375 127.972656 C 281.367188 125.683594 281.085938 123.398438 280.746094 121.125 C 280.410156 118.847656 280.015625 116.582031 279.566406 114.328125 C 279.121094 112.070312 278.617188 109.828125 278.054688 107.59375 C 277.496094 105.363281 276.882812 103.148438 276.214844 100.945312 C 275.546875 98.746094 274.828125 96.5625 274.050781 94.394531 C 273.277344 92.230469 272.449219 90.082031 271.570312 87.957031 C 270.6875 85.832031 269.757812 83.730469 268.773438 81.648438 C 267.789062 79.570312 266.753906 77.515625 265.671875 75.488281 C 264.585938 73.457031 263.453125 71.457031 262.269531 69.484375 C 261.089844 67.511719 259.859375 65.570312 258.578125 63.65625 C 257.300781 61.742188 255.976562 59.863281 254.605469 58.015625 C 253.238281 56.167969 251.820312 54.355469 250.363281 52.574219 C 248.902344 50.796875 247.402344 49.054688 245.855469 47.351562 C 244.3125 45.648438 242.726562 43.980469 241.097656 42.355469 C 239.472656 40.726562 237.804688 39.140625 236.101562 37.597656 C 234.398438 36.050781 232.65625 34.550781 230.878906 33.089844 C 229.097656 31.632812 227.285156 30.214844 225.4375 28.847656 C 223.589844 27.476562 221.710938 26.152344 219.796875 24.875 C 217.882812 23.59375 215.941406 22.363281 213.96875 21.183594 C 211.996094 20 209.996094 18.867188 207.964844 17.78125 C 205.9375 16.699219 203.882812 15.664062 201.804688 14.679688 C 199.722656 13.695312 197.621094 12.765625 195.496094 11.882812 C 193.371094 11.003906 191.222656 10.175781 189.058594 9.402344 C 186.890625 8.625 184.707031 7.90625 182.507812 7.238281 C 180.304688 6.570312 178.089844 5.957031 175.859375 5.398438 C 173.625 4.835938 171.382812 4.332031 169.125 3.886719 C 166.871094 3.4375 164.605469 3.042969 162.328125 2.707031 C 160.054688 2.367188 157.769531 2.085938 155.480469 1.859375 C 153.191406 1.636719 150.898438 1.464844 148.601562 1.351562 C 146.300781 1.242188 144.003906 1.183594 141.703125 1.183594 C 139.402344 1.183594 137.105469 1.242188 134.804688 1.351562 C 132.507812 1.464844 130.214844 1.636719 127.925781 1.859375 C 125.636719 2.085938 123.351562 2.367188 121.078125 2.707031 C 118.800781 3.042969 116.535156 3.4375 114.28125 3.886719 C 112.023438 4.332031 109.78125 4.835938 107.546875 5.398438 C 105.316406 5.957031 103.101562 6.570312 100.898438 7.238281 C 98.699219 7.90625 96.515625 8.625 94.347656 9.402344 C 92.183594 10.175781 90.035156 11.003906 87.910156 11.882812 C 85.785156 12.765625 83.683594 13.695312 81.601562 14.679688 C 79.523438 15.664062 77.46875 16.699219 75.441406 17.78125 C 73.410156 18.867188 71.410156 20 69.4375 21.183594 C 67.464844 22.363281 65.523438 23.59375 63.609375 24.875 C 61.695312 26.152344 59.816406 27.476562 57.96875 28.847656 C 56.121094 30.214844 54.308594 31.632812 52.527344 33.089844 C 50.75 34.550781 49.007812 36.050781 47.304688 37.597656 C 45.601562 39.140625 43.933594 40.726562 42.308594 42.355469 C 40.679688 43.980469 39.09375 45.648438 37.550781 47.351562 C 36.003906 49.054688 34.503906 50.796875 33.042969 52.574219 C 31.585938 54.355469 30.167969 56.167969 28.800781 58.015625 C 27.429688 59.863281 26.105469 61.742188 24.828125 63.65625 C 23.546875 65.570312 22.316406 67.511719 21.136719 69.484375 C 19.953125 71.457031 18.820312 73.457031 17.734375 75.488281 C 16.652344 77.515625 15.617188 79.570312 14.632812 81.648438 C 13.648438 83.730469 12.71875 85.832031 11.835938 87.957031 C 10.957031 90.082031 10.128906 92.230469 9.355469 94.394531 C 8.578125 96.5625 7.859375 98.746094 7.191406 100.945312 C 6.523438 103.148438 5.910156 105.363281 5.351562 107.59375 C 4.789062 109.828125 4.285156 112.070312 3.839844 114.328125 C 3.390625 116.582031 2.996094 118.847656 2.660156 121.125 C 2.320312 123.398438 2.039062 125.683594 1.8125 127.972656 C 1.589844 130.261719 1.417969 132.554688 1.304688 134.851562 C 1.195312 137.152344 1.136719 139.449219 1.136719 141.75 Z M 1.136719 141.75 " fill-opacity="1" fill-rule="nonzero"/><g clip-path="url(#ba2a400fab)"><path fill="#ff004f" d="M 141.703125 283.492188 C 179.566406 283.492188 215.160156 268.746094 241.929688 241.976562 C 268.707031 215.210938 283.453125 179.613281 283.453125 141.75 C 283.453125 103.886719 268.707031 68.289062 241.9375 41.515625 C 215.167969 14.742188 179.566406 0 141.703125 0 C 103.839844 0 68.242188 14.746094 41.476562 41.515625 C 14.707031 68.285156 -0.0390625 103.886719 -0.0390625 141.742188 C -0.0390625 179.601562 14.707031 215.203125 41.476562 241.972656 C 68.25 268.742188 103.847656 283.488281 141.703125 283.488281 Z M 141.703125 2.367188 C 218.558594 2.367188 281.085938 64.894531 281.085938 141.75 C 281.085938 218.605469 218.558594 281.132812 141.703125 281.132812 C 64.847656 281.132812 2.320312 218.605469 2.320312 141.75 C 2.320312 64.894531 64.851562 2.367188 141.703125 2.367188 Z M 141.703125 2.367188 " fill-opacity="1" fill-rule="nonzero"/></g><path fill="#ff004f" d="M 22 141.75 C 22 143.710938 22.046875 145.667969 22.144531 147.625 C 22.238281 149.582031 22.382812 151.535156 22.574219 153.484375 C 22.765625 155.433594 23.007812 157.375 23.292969 159.3125 C 23.582031 161.253906 23.917969 163.183594 24.296875 165.101562 C 24.679688 167.023438 25.109375 168.933594 25.585938 170.835938 C 26.0625 172.734375 26.585938 174.625 27.152344 176.5 C 27.722656 178.375 28.335938 180.234375 28.996094 182.078125 C 29.65625 183.921875 30.359375 185.75 31.109375 187.558594 C 31.859375 189.367188 32.652344 191.160156 33.492188 192.929688 C 34.328125 194.703125 35.210938 196.449219 36.132812 198.179688 C 37.054688 199.90625 38.023438 201.609375 39.027344 203.289062 C 40.035156 204.972656 41.082031 206.625 42.171875 208.253906 C 43.261719 209.882812 44.386719 211.484375 45.554688 213.058594 C 46.722656 214.632812 47.925781 216.175781 49.171875 217.691406 C 50.414062 219.203125 51.691406 220.6875 53.007812 222.140625 C 54.324219 223.589844 55.675781 225.007812 57.058594 226.394531 C 58.445312 227.777344 59.863281 229.128906 61.3125 230.445312 C 62.765625 231.761719 64.25 233.039062 65.761719 234.28125 C 67.277344 235.527344 68.820312 236.730469 70.394531 237.898438 C 71.96875 239.066406 73.570312 240.191406 75.199219 241.28125 C 76.828125 242.367188 78.480469 243.417969 80.164062 244.425781 C 81.84375 245.429688 83.546875 246.398438 85.273438 247.320312 C 87.003906 248.242188 88.75 249.125 90.523438 249.960938 C 92.292969 250.800781 94.085938 251.59375 95.894531 252.34375 C 97.703125 253.09375 99.53125 253.796875 101.375 254.457031 C 103.21875 255.117188 105.078125 255.730469 106.953125 256.300781 C 108.828125 256.867188 110.71875 257.390625 112.617188 257.867188 C 114.519531 258.34375 116.429688 258.773438 118.351562 259.15625 C 120.269531 259.535156 122.199219 259.871094 124.140625 260.160156 C 126.078125 260.445312 128.019531 260.6875 129.96875 260.878906 C 131.917969 261.070312 133.871094 261.214844 135.828125 261.308594 C 137.785156 261.40625 139.742188 261.453125 141.703125 261.453125 C 143.664062 261.453125 145.621094 261.40625 147.578125 261.308594 C 149.535156 261.214844 151.488281 261.070312 153.4375 260.878906 C 155.386719 260.6875 157.328125 260.445312 159.265625 260.160156 C 161.207031 259.871094 163.136719 259.535156 165.054688 259.15625 C 166.976562 258.773438 168.886719 258.34375 170.789062 257.867188 C 172.6875 257.390625 174.578125 256.867188 176.453125 256.300781 C 178.328125 255.730469 180.1875 255.117188 182.03125 254.457031 C 183.875 253.796875 185.703125 253.09375 187.511719 252.34375 C 189.320312 251.59375 191.113281 250.800781 192.882812 249.960938 C 194.65625 249.125 196.402344 248.242188 198.132812 247.320312 C 199.859375 246.398438 201.5625 245.429688 203.242188 244.425781 C 204.925781 243.417969 206.578125 242.367188 208.207031 241.28125 C 209.835938 240.191406 211.4375 239.066406 213.011719 237.898438 C 214.585938 236.730469 216.128906 235.527344 217.644531 234.28125 C 219.15625 233.039062 220.640625 231.761719 222.089844 230.445312 C 223.542969 229.128906 224.960938 227.777344 226.347656 226.394531 C 227.730469 225.007812 229.082031 223.589844 230.398438 222.140625 C 231.714844 220.6875 232.992188 219.203125 234.234375 217.691406 C 235.480469 216.175781 236.683594 214.632812 237.851562 213.058594 C 239.019531 211.484375 240.144531 209.882812 241.234375 208.253906 C 242.320312 206.625 243.371094 204.972656 244.378906 203.289062 C 245.382812 201.609375 246.351562 199.90625 247.273438 198.179688 C 248.195312 196.449219 249.078125 194.703125 249.914062 192.929688 C 250.753906 191.160156 251.546875 189.367188 252.296875 187.558594 C 253.046875 185.75 253.75 183.921875 254.410156 182.078125 C 255.070312 180.234375 255.683594 178.375 256.253906 176.5 C 256.820312 174.625 257.34375 172.734375 257.820312 170.835938 C 258.296875 168.933594 258.726562 167.023438 259.109375 165.101562 C 259.488281 163.183594 259.824219 161.253906 260.113281 159.3125 C 260.398438 157.375 260.640625 155.433594 260.832031 153.484375 C 261.023438 151.535156 261.167969 149.582031 261.261719 147.625 C 261.359375 145.667969 261.40625 143.710938 261.40625 141.75 C 261.40625 139.789062 261.359375 137.832031 261.261719 135.875 C 261.167969 133.917969 261.023438 131.964844 260.832031 130.015625 C 260.640625 128.066406 260.398438 126.125 260.113281 124.1875 C 259.824219 122.246094 259.488281 120.316406 259.109375 118.398438 C 258.726562 116.476562 258.296875 114.566406 257.820312 112.664062 C 257.34375 110.765625 256.820312 108.875 256.253906 107 C 255.683594 105.125 255.070312 103.265625 254.410156 101.421875 C 253.75 99.578125 253.046875 97.75 252.296875 95.941406 C 251.546875 94.132812 250.753906 92.339844 249.914062 90.570312 C 249.078125 88.796875 248.195312 87.050781 247.273438 85.320312 C 246.351562 83.59375 245.382812 81.890625 244.378906 80.210938 C 243.371094 78.527344 242.320312 76.875 241.234375 75.246094 C 240.144531 73.617188 239.019531 72.015625 237.851562 70.441406 C 236.683594 68.867188 235.480469 67.324219 234.234375 65.808594 C 232.992188 64.296875 231.714844 62.8125 230.398438 61.359375 C 229.082031 59.910156 227.730469 58.492188 226.347656 57.105469 C 224.960938 55.722656 223.542969 54.371094 222.089844 53.054688 C 220.640625 51.738281 219.15625 50.460938 217.644531 49.21875 C 216.128906 47.972656 214.585938 46.769531 213.011719 45.601562 C 211.4375 44.433594 209.835938 43.308594 208.207031 42.21875 C 206.578125 41.132812 204.925781 40.082031 203.242188 39.074219 C 201.5625 38.070312 199.859375 37.101562 198.132812 36.179688 C 196.402344 35.257812 194.65625 34.375 192.882812 33.539062 C 191.113281 32.699219 189.320312 31.90625 187.511719 31.15625 C 185.703125 30.40625 183.875 29.703125 182.03125 29.042969 C 180.1875 28.382812 178.328125 27.769531 176.453125 27.199219 C 174.578125 26.632812 172.6875 26.109375 170.789062 25.632812 C 168.886719 25.15625 166.976562 24.726562 165.054688 24.34375 C 163.136719 23.964844 161.207031 23.628906 159.265625 23.339844 C 157.328125 23.054688 155.386719 22.8125 153.4375 22.621094 C 151.488281 22.429688 149.535156 22.285156 147.578125 22.191406 C 145.621094 22.09375 143.664062 22.046875 141.703125 22.046875 C 139.742188 22.046875 137.785156 22.09375 135.828125 22.191406 C 133.871094 22.285156 131.917969 22.429688 129.96875 22.621094 C 128.019531 22.8125 126.078125 23.054688 124.140625 23.339844 C 122.199219 23.628906 120.269531 23.964844 118.351562 24.34375 C 116.429688 24.726562 114.519531 25.15625 112.617188 25.632812 C 110.71875 26.109375 108.828125 26.632812 106.953125 27.199219 C 105.078125 27.769531 103.21875 28.382812 101.375 29.042969 C 99.53125 29.703125 97.703125 30.40625 95.894531 31.15625 C 94.085938 31.90625 92.292969 32.699219 90.523438 33.539062 C 88.75 34.375 87.003906 35.257812 85.273438 36.179688 C 83.546875 37.101562 81.84375 38.070312 80.164062 39.074219 C 78.480469 40.082031 76.828125 41.132812 75.199219 42.21875 C 73.570312 43.308594 71.96875 44.433594 70.394531 45.601562 C 68.820312 46.769531 67.277344 47.972656 65.761719 49.21875 C 64.25 50.460938 62.765625 51.738281 61.3125 53.054688 C 59.863281 54.371094 58.445312 55.722656 57.058594 57.105469 C 55.675781 58.492188 54.324219 59.910156 53.007812 61.359375 C 51.691406 62.8125 50.414062 64.296875 49.171875 65.808594 C 47.925781 67.324219 46.722656 68.867188 45.554688 70.441406 C 44.386719 72.015625 43.261719 73.617188 42.171875 75.246094 C 41.082031 76.875 40.035156 78.527344 39.027344 80.210938 C 38.023438 81.890625 37.054688 83.59375 36.132812 85.320312 C 35.210938 87.050781 34.328125 88.796875 33.492188 90.570312 C 32.652344 92.339844 31.859375 94.132812 31.109375 95.941406 C 30.359375 97.75 29.65625 99.578125 28.996094 101.421875 C 28.335938 103.265625 27.722656 105.125 27.152344 107 C 26.585938 108.875 26.0625 110.765625 25.585938 112.664062 C 25.109375 114.566406 24.679688 116.476562 24.296875 118.398438 C 23.917969 120.316406 23.582031 122.246094 23.292969 124.1875 C 23.007812 126.125 22.765625 128.066406 22.574219 130.015625 C 22.382812 131.964844 22.238281 133.917969 22.144531 135.875 C 22.046875 137.832031 22 139.789062 22 141.75 Z M 22 141.75 " fill-opacity="1" fill-rule="nonzero"/><path fill="#ffffff" d="M 155.085938 220.363281 L 185.78125 189.671875 L 137.398438 141.289062 L 184.859375 93.828125 L 154.160156 63.128906 L 76.003906 141.289062 Z M 155.085938 220.363281 " fill-opacity="1" fill-rule="nonzero"/></svg>