<svg xmlns="http://www.w3.org/2000/svg" xmlns:xlink="http://www.w3.org/1999/xlink" width="264" zoomAndPan="magnify" viewBox="0 0 198.75 42.75" height="56" preserveAspectRatio="xMidYMid meet" version="1.0"><defs><clipPath id="feaab672a1"><path d="M 161.902344 4.234375 L 195 4.234375 L 195 36.335938 L 161.902344 36.335938 Z M 161.902344 4.234375 " clip-rule="nonzero"/></clipPath><clipPath id="d7dab96f83"><path d="M 2.488281 7 L 157.777344 7 L 157.777344 33.875 L 2.488281 33.875 Z M 2.488281 7 " clip-rule="nonzero"/></clipPath></defs><g clip-path="url(#feaab672a1)"><path fill="#fbc300" d="M 178.1875 36.316406 C 169.207031 36.316406 161.902344 29.125 161.902344 20.28125 C 161.902344 11.4375 169.210938 4.242188 178.1875 4.242188 C 181.132812 4.242188 184.007812 5.015625 186.511719 6.484375 C 187.039062 6.792969 187.210938 7.464844 186.898438 7.980469 C 186.582031 8.5 185.894531 8.65625 185.378906 8.359375 C 183.21875 7.09375 180.734375 6.421875 178.1875 6.421875 C 170.429688 6.421875 164.117188 12.636719 164.117188 20.28125 C 164.117188 27.917969 170.433594 34.128906 178.1875 34.128906 C 185.949219 34.128906 192.261719 27.917969 192.261719 20.28125 C 192.261719 19.675781 192.757812 19.191406 193.371094 19.191406 C 193.984375 19.191406 194.484375 19.675781 194.484375 20.28125 C 194.484375 29.125 187.171875 36.316406 178.1875 36.316406 Z M 178.1875 36.316406 " fill-opacity="1" fill-rule="nonzero"/></g><path fill="#fa835a" d="M 176.871094 29.230469 C 176.824219 29.230469 176.773438 29.230469 176.722656 29.222656 C 175.929688 29.179688 175.203125 28.777344 174.753906 28.128906 L 169.324219 20.351562 C 168.519531 19.199219 168.820312 17.621094 169.988281 16.828125 C 171.171875 16.035156 172.757812 16.332031 173.566406 17.484375 L 177.117188 22.582031 L 191.4375 6.488281 C 192.378906 5.433594 194 5.335938 195.066406 6.253906 C 196.136719 7.175781 196.242188 8.773438 195.304688 9.824219 L 178.804688 28.363281 C 178.320312 28.917969 177.613281 29.230469 176.871094 29.230469 Z M 176.871094 29.230469 " fill-opacity="1" fill-rule="nonzero"/><g clip-path="url(#d7dab96f83)"><path fill="#fbc300" d="M 17.410156 7.707031 L 20.929688 14.882812 C 21.050781 15.164062 21.328125 15.367188 21.648438 15.40625 L 29.570312 16.566406 C 30.328125 16.6875 30.648438 17.652344 30.089844 18.171875 L 24.371094 23.746094 C 24.128906 23.945312 24.050781 24.265625 24.089844 24.585938 L 25.449219 32.484375 C 25.570312 33.246094 24.769531 33.847656 24.089844 33.488281 L 17.007812 29.757812 C 16.730469 29.597656 16.410156 29.597656 16.128906 29.757812 L 9.046875 33.488281 C 8.367188 33.847656 7.570312 33.246094 7.6875 32.484375 L 9.046875 24.585938 C 9.089844 24.265625 9.007812 23.984375 8.769531 23.746094 L 3.046875 18.171875 C 2.488281 17.609375 2.808594 16.6875 3.570312 16.566406 L 11.488281 15.40625 C 11.808594 15.367188 12.050781 15.164062 12.207031 14.882812 L 15.730469 7.707031 C 16.089844 7.027344 17.089844 7.027344 17.410156 7.707031 Z M 47.492188 7.707031 L 43.96875 14.882812 C 43.851562 15.164062 43.570312 15.367188 43.25 15.40625 L 35.328125 16.566406 C 34.570312 16.6875 34.25 17.652344 34.808594 18.171875 L 40.53125 23.746094 C 40.769531 23.945312 40.851562 24.265625 40.808594 24.585938 L 39.449219 32.484375 C 39.332031 33.246094 40.128906 33.847656 40.808594 33.488281 L 47.890625 29.757812 C 48.171875 29.597656 48.492188 29.597656 48.769531 29.757812 L 55.851562 33.488281 C 56.53125 33.847656 57.371094 33.246094 57.210938 32.484375 L 55.851562 24.585938 C 55.8125 24.265625 55.890625 23.984375 56.132812 23.746094 L 61.851562 18.171875 C 62.410156 17.609375 62.089844 16.6875 61.332031 16.566406 L 53.410156 15.40625 C 53.089844 15.367188 52.851562 15.164062 52.691406 14.882812 L 49.171875 7.707031 C 48.851562 7.027344 47.851562 7.027344 47.492188 7.707031 Z M 79.292969 7.707031 L 75.773438 14.882812 C 75.652344 15.164062 75.371094 15.367188 75.050781 15.40625 L 67.132812 16.566406 C 66.371094 16.6875 66.050781 17.652344 66.613281 18.171875 L 72.332031 23.746094 C 72.570312 23.945312 72.652344 24.265625 72.613281 24.585938 L 71.25 32.484375 C 71.132812 33.246094 71.933594 33.847656 72.613281 33.488281 L 79.691406 29.757812 C 79.972656 29.597656 80.292969 29.597656 80.574219 29.757812 L 87.652344 33.488281 C 88.332031 33.847656 89.171875 33.246094 89.011719 32.484375 L 87.652344 24.585938 C 87.613281 24.265625 87.691406 23.984375 87.933594 23.746094 L 93.652344 18.171875 C 94.214844 17.609375 93.894531 16.6875 93.132812 16.566406 L 85.210938 15.40625 C 84.894531 15.367188 84.652344 15.164062 84.492188 14.882812 L 80.972656 7.707031 C 80.613281 7.027344 79.613281 7.027344 79.292969 7.707031 Z M 111.054688 7.707031 L 107.535156 14.882812 C 107.414062 15.164062 107.132812 15.367188 106.8125 15.40625 L 98.894531 16.566406 C 98.132812 16.6875 97.8125 17.652344 98.375 18.171875 L 104.09375 23.746094 C 104.332031 23.945312 104.414062 24.265625 104.375 24.585938 L 103.011719 32.484375 C 102.894531 33.246094 103.695312 33.847656 104.375 33.488281 L 111.453125 29.757812 C 111.734375 29.597656 112.054688 29.597656 112.335938 29.757812 L 119.414062 33.488281 C 120.09375 33.847656 120.933594 33.246094 120.773438 32.484375 L 119.414062 24.585938 C 119.375 24.265625 119.453125 23.984375 119.695312 23.746094 L 125.414062 18.171875 C 125.976562 17.609375 125.65625 16.6875 124.894531 16.566406 L 116.972656 15.40625 C 116.65625 15.367188 116.414062 15.164062 116.253906 14.882812 L 112.734375 7.707031 C 112.414062 7.027344 111.414062 7.027344 111.054688 7.707031 Z M 142.855469 7.707031 L 139.335938 14.882812 C 139.214844 15.164062 138.933594 15.367188 138.617188 15.40625 L 130.695312 16.566406 C 129.933594 16.6875 129.613281 17.652344 130.175781 18.171875 L 135.894531 23.746094 C 136.136719 23.945312 136.214844 24.265625 136.175781 24.585938 L 134.816406 32.484375 C 134.695312 33.246094 135.496094 33.847656 136.175781 33.488281 L 143.253906 29.757812 C 143.535156 29.597656 143.855469 29.597656 144.136719 29.757812 L 151.214844 33.488281 C 151.894531 33.847656 152.734375 33.246094 152.578125 32.484375 L 151.214844 24.585938 C 151.175781 24.265625 151.257812 23.984375 151.496094 23.746094 L 157.214844 18.171875 C 157.777344 17.609375 157.457031 16.6875 156.695312 16.566406 L 148.777344 15.40625 C 148.457031 15.367188 148.214844 15.164062 148.054688 14.882812 L 144.535156 7.707031 C 144.175781 7.027344 143.175781 7.027344 142.855469 7.707031 Z M 142.855469 7.707031 " fill-opacity="1" fill-rule="nonzero"/></g></svg>